<?xml version="1.0" encoding="utf-8"?>
<!-- Generator: Adobe Illustrator 25.3.1, SVG Export Plug-In . SVG Version: 6.00 Build 0)  -->
<svg version="1.1" id="Слой_1" xmlns="http://www.w3.org/2000/svg" xmlns:xlink="http://www.w3.org/1999/xlink" x="0px" y="0px"
	 viewBox="0 0 113.4 34" enable-background="new 0 0 113.4 34" xml:space="preserve">
<rect y="0" fill="none" width="113.4" height="34"/>
<g>
	<g>
		<path d="M47.6,13v-2.5h-9.4v16.4h2.7v-6.8H47v-2.5h-6.1V13H47.6z M47.6,13"/>
		<path d="M73.4,19.8v7.1h2.5v-7.8c0-1.8-0.9-5.1-4.8-5.1c-3,0-4.2,1.9-4.2,1.9l-0.2-1.6h-2.2v12.7h2.6v-6.4c0-2.8,1.5-4.1,3.4-4.1
			C72.8,16.3,73.4,18.2,73.4,19.8L73.4,19.8z M73.4,19.8"/>
		<path d="M101,25.8l5.2-11.6h-2.6l-3.8,8.9l-4-8.9H93l5.4,11.7c-0.1,0.3-0.8,2-1.4,2.5c-0.5,0.5-1.1,0.6-1.9,0.6l0.4,2.2
			c0.6,0,1.1-0.1,1.7-0.3c0.5-0.2,1-0.5,1.4-0.9c1.2-1.2,2.2-3.8,2.2-3.8L101,25.8L101,25.8L101,25.8z M101,25.8"/>
		<path d="M56,14h-0.7c-1.7,0-3.3,0.7-4.4,1.9c-1.2,1.2-1.8,2.8-1.8,4.5v0.5c0,1.7,0.7,3.3,1.8,4.5c1.2,1.2,2.8,1.8,4.4,1.8H56
			c1.7,0,3.3-0.7,4.5-1.8c1.2-1.2,1.8-2.8,1.8-4.5v-0.5c0-1.7-0.7-3.3-1.8-4.5C59.3,14.7,57.7,14,56,14L56,14z M59.8,20.7
			c0,1.1-0.4,2.1-1.2,2.8c-0.8,0.8-1.8,1.2-2.8,1.2h-0.1c-1.1,0-2.1-0.4-2.8-1.2c-0.8-0.8-1.2-1.8-1.2-2.8v-0.3
			c0-1.1,0.4-2.1,1.2-2.8c0.8-0.8,1.8-1.2,2.8-1.2h0.1c1.1,0,2.1,0.4,2.8,1.2c0.8,0.8,1.2,1.8,1.2,2.8L59.8,20.7z M59.8,20.7"/>
		<path d="M88.7,9.7v5.7c-1.1-0.9-2.5-1.4-3.9-1.4h-0.4c-1.7,0-3.3,0.7-4.5,1.9c-1.2,1.2-1.8,2.8-1.8,4.5v0.5c0,1.7,0.7,3.3,1.8,4.5
			c1.2,1.2,2.8,1.8,4.5,1.8h0.4c1.6,0,3.1-0.6,4.3-1.7l0.2,1.4h2V9.7H88.7z M88.8,20.7c0,1.1-0.4,2.1-1.2,2.8
			c-0.8,0.8-1.8,1.2-2.8,1.2h-0.1c-1.1,0-2.1-0.4-2.8-1.2c-0.8-0.8-1.2-1.8-1.2-2.8v-0.3c0-1.1,0.4-2.1,1.2-2.8
			c0.8-0.8,1.8-1.2,2.8-1.2h0.1c1.1,0,2.1,0.4,2.8,1.2c0.8,0.8,1.2,1.8,1.2,2.8V20.7z M88.8,20.7"/>
	</g>
	<g>
		<path fill="#08A835" d="M21.1,26.7V24c0-0.1,0-0.3-0.1-0.4c-0.1-0.1-0.2-0.2-0.3-0.3L18.3,22c-0.1-0.1-0.3-0.1-0.4-0.1
			c-0.1,0-0.3,0-0.4,0.1l-2.3,1.3c-0.1,0.1-0.2,0.2-0.3,0.3c-0.1,0.1-0.1,0.3-0.1,0.4v2.7c0,0.1,0,0.3,0.1,0.4
			c0.1,0.1,0.2,0.2,0.3,0.3l2.3,1.3c0.1,0.1,0.3,0.1,0.4,0.1c0.1,0,0.3,0,0.4-0.1l2.3-1.3c0.1-0.1,0.2-0.2,0.3-0.3
			C21.1,27,21.1,26.9,21.1,26.7L21.1,26.7z M21.1,26.7"/>
		<path fill="#08A835" d="M28.7,26.7V24c0-0.1,0-0.3-0.1-0.4c-0.1-0.1-0.2-0.2-0.3-0.3L25.9,22c-0.1-0.1-0.3-0.1-0.4-0.1
			c-0.1,0-0.3,0-0.4,0.1l-2.3,1.3c-0.1,0.1-0.2,0.2-0.3,0.3c-0.1,0.1-0.1,0.3-0.1,0.4v2.7c0,0.1,0,0.3,0.1,0.4
			c0.1,0.1,0.2,0.2,0.3,0.3l2.3,1.3c0.1,0.1,0.3,0.1,0.4,0.1c0.1,0,0.3,0,0.4-0.1l2.3-1.3c0.1-0.1,0.2-0.2,0.3-0.3
			C28.6,27,28.7,26.9,28.7,26.7L28.7,26.7z M28.7,26.7"/>
		<path fill="#08A835" d="M17.3,20.1v-2.7c0-0.1,0-0.3-0.1-0.4c-0.1-0.1-0.2-0.2-0.3-0.3l-2.3-1.3c-0.1-0.1-0.3-0.1-0.4-0.1
			c-0.1,0-0.3,0-0.4,0.1l-2.3,1.3c-0.1,0.1-0.2,0.2-0.3,0.3C11,17.1,11,17.3,11,17.4v2.7c0,0.1,0,0.3,0.1,0.4
			c0.1,0.1,0.2,0.2,0.3,0.3l2.3,1.3c0.1,0.1,0.3,0.1,0.4,0.1c0.1,0,0.3,0,0.4-0.1l2.3-1.3c0.1-0.1,0.2-0.2,0.3-0.3
			C17.3,20.4,17.3,20.3,17.3,20.1L17.3,20.1z M17.3,20.1"/>
		<path fill="#08A835" d="M24.9,20.1v-2.7c0-0.1,0-0.3-0.1-0.4c-0.1-0.1-0.2-0.2-0.3-0.3l-2.3-1.3c-0.1-0.1-0.3-0.1-0.4-0.1
			c-0.1,0-0.3,0-0.4,0.1L19,16.7c-0.1,0.1-0.2,0.2-0.3,0.3c-0.1,0.1-0.1,0.3-0.1,0.4v2.7c0,0.1,0,0.3,0.1,0.4
			c0.1,0.1,0.2,0.2,0.3,0.3l2.3,1.3c0.1,0.1,0.3,0.1,0.4,0.1c0.1,0,0.3,0,0.4-0.1l2.3-1.3c0.1-0.1,0.2-0.2,0.3-0.3
			C24.8,20.4,24.9,20.3,24.9,20.1L24.9,20.1z M24.9,20.1"/>
		<path fill="#08A835" d="M13.5,26.7V24c0-0.1,0-0.3-0.1-0.4c-0.1-0.1-0.2-0.2-0.3-0.3L10.8,22c-0.1-0.1-0.3-0.1-0.4-0.1
			c-0.1,0-0.3,0-0.4,0.1l-2.3,1.3c-0.1,0.1-0.2,0.2-0.3,0.3c-0.1,0.1-0.1,0.3-0.1,0.4v2.7c0,0.1,0,0.3,0.1,0.4
			c0.1,0.1,0.2,0.2,0.3,0.3l2.3,1.3c0.1,0.1,0.3,0.1,0.4,0.1c0.1,0,0.3,0,0.4-0.1l2.3-1.3c0.1-0.1,0.2-0.2,0.3-0.3
			C13.5,27,13.5,26.9,13.5,26.7L13.5,26.7z M13.5,26.7"/>
		<path d="M21.1,13.5v-2.7c0-0.1,0-0.3-0.1-0.4c-0.1-0.1-0.2-0.2-0.3-0.3l-2.3-1.3c-0.1-0.1-0.3-0.1-0.4-0.1c-0.1,0-0.3,0-0.4,0.1
			l-2.3,1.3c-0.1,0.1-0.2,0.2-0.3,0.3c-0.1,0.1-0.1,0.3-0.1,0.4v2.7c0,0.1,0,0.3,0.1,0.4c0.1,0.1,0.2,0.2,0.3,0.3l2.3,1.3
			c0.1,0.1,0.3,0.1,0.4,0.1c0.1,0,0.3,0,0.4-0.1l2.3-1.3c0.1-0.1,0.2-0.2,0.3-0.3C21.1,13.8,21.1,13.7,21.1,13.5L21.1,13.5z
			 M21.1,13.5"/>
	</g>
	<g>
		<path d="M41.2,3.3c0.3,0.3,0.5,0.6,0.5,1.1s-0.2,0.8-0.5,1.1c-0.3,0.3-0.7,0.4-1.3,0.4h-1v1.3h-0.6V3h1.6
			C40.4,3,40.9,3.1,41.2,3.3z M40.7,5.1C40.9,5,41,4.7,41,4.4c0-0.3-0.1-0.5-0.3-0.7s-0.5-0.2-0.9-0.2h-1v1.9h1
			C40.3,5.4,40.5,5.3,40.7,5.1z"/>
		<path d="M43.4,4.1c0.2-0.1,0.4-0.1,0.7-0.1v0.6c0,0-0.1,0-0.1,0c-0.3,0-0.6,0.1-0.7,0.3C43,5,43,5.2,43,5.6v1.6h-0.6V4h0.6v0.5
			C43,4.3,43.2,4.2,43.4,4.1z"/>
		<path d="M45.3,7c-0.3-0.1-0.4-0.3-0.6-0.6c-0.1-0.2-0.2-0.5-0.2-0.8s0.1-0.6,0.2-0.8c0.1-0.2,0.3-0.4,0.6-0.6
			c0.3-0.1,0.5-0.2,0.9-0.2c0.3,0,0.6,0.1,0.8,0.2c0.2,0.1,0.4,0.3,0.6,0.6c0.1,0.2,0.2,0.5,0.2,0.8s-0.1,0.6-0.2,0.8
			C47.4,6.6,47.2,6.8,47,7c-0.2,0.1-0.5,0.2-0.8,0.2C45.8,7.2,45.5,7.1,45.3,7z M46.7,6.5c0.2-0.1,0.3-0.2,0.4-0.4s0.1-0.4,0.1-0.6
			c0-0.2,0-0.4-0.1-0.6s-0.2-0.3-0.4-0.4c-0.2-0.1-0.3-0.1-0.5-0.1s-0.4,0-0.5,0.1c-0.2,0.1-0.3,0.2-0.4,0.4
			c-0.1,0.2-0.1,0.4-0.1,0.6c0,0.2,0,0.4,0.1,0.6c0.1,0.2,0.2,0.3,0.4,0.4c0.2,0.1,0.3,0.1,0.5,0.1S46.5,6.6,46.7,6.5z"/>
		<path d="M49.1,7c-0.3-0.1-0.5-0.3-0.6-0.6c-0.1-0.2-0.2-0.5-0.2-0.8s0.1-0.6,0.2-0.8c0.1-0.2,0.3-0.4,0.6-0.6
			C49.4,4,49.6,3.9,50,3.9c0.3,0,0.5,0.1,0.8,0.2c0.2,0.1,0.4,0.3,0.5,0.5l-0.4,0.3c-0.1-0.2-0.2-0.3-0.4-0.3
			c-0.1-0.1-0.3-0.1-0.5-0.1c-0.2,0-0.4,0-0.6,0.1C49.2,4.7,49.1,4.8,49,5c-0.1,0.2-0.1,0.4-0.1,0.6c0,0.2,0,0.4,0.1,0.6
			c0.1,0.2,0.2,0.3,0.4,0.4s0.4,0.1,0.6,0.1c0.2,0,0.3,0,0.5-0.1c0.1-0.1,0.3-0.2,0.4-0.3l0.4,0.3C51.1,6.7,51,6.9,50.7,7
			c-0.2,0.1-0.5,0.2-0.8,0.2C49.6,7.2,49.4,7.1,49.1,7z"/>
		<path d="M54.8,5.8h-2.6c0,0.3,0.2,0.5,0.4,0.7c0.2,0.2,0.5,0.3,0.8,0.3c0.4,0,0.7-0.1,0.9-0.4l0.3,0.4c-0.1,0.2-0.3,0.3-0.5,0.4
			c-0.2,0.1-0.5,0.1-0.7,0.1c-0.3,0-0.6-0.1-0.9-0.2c-0.3-0.1-0.5-0.3-0.6-0.6c-0.1-0.2-0.2-0.5-0.2-0.8c0-0.3,0.1-0.6,0.2-0.8
			s0.3-0.4,0.6-0.6C52.7,4,53,3.9,53.3,3.9c0.3,0,0.6,0.1,0.8,0.2c0.2,0.1,0.4,0.3,0.6,0.6s0.2,0.5,0.2,0.9
			C54.8,5.6,54.8,5.7,54.8,5.8z M52.6,4.7c-0.2,0.2-0.3,0.4-0.3,0.7h2c0-0.3-0.1-0.5-0.3-0.7c-0.2-0.2-0.4-0.3-0.7-0.3
			C53,4.4,52.8,4.5,52.6,4.7z"/>
		<path d="M55.8,7.1c-0.2-0.1-0.4-0.2-0.6-0.3l0.2-0.5c0.1,0.1,0.3,0.2,0.5,0.2c0.2,0.1,0.4,0.1,0.6,0.1c0.5,0,0.8-0.1,0.8-0.4
			c0-0.1,0-0.2-0.1-0.2C57.2,6,57.1,5.9,57,5.9c-0.1,0-0.2-0.1-0.4-0.1c-0.3,0-0.5-0.1-0.6-0.1c-0.2-0.1-0.3-0.1-0.4-0.3
			s-0.2-0.3-0.2-0.5c0-0.3,0.1-0.5,0.4-0.7c0.2-0.2,0.6-0.3,1-0.3c0.2,0,0.4,0,0.6,0.1c0.2,0.1,0.4,0.1,0.5,0.2l-0.2,0.5
			c-0.3-0.2-0.6-0.3-0.9-0.3c-0.2,0-0.4,0-0.6,0.1c-0.1,0.1-0.2,0.2-0.2,0.3c0,0.1,0,0.2,0.1,0.2s0.2,0.1,0.3,0.1
			c0.1,0,0.3,0.1,0.4,0.1c0.3,0,0.5,0.1,0.6,0.1c0.2,0.1,0.3,0.1,0.4,0.3c0.1,0.1,0.2,0.3,0.2,0.5c0,0.3-0.1,0.5-0.4,0.7
			c-0.2,0.2-0.6,0.3-1,0.3C56.3,7.2,56,7.2,55.8,7.1z"/>
		<path d="M58.8,7.1c-0.2-0.1-0.4-0.2-0.6-0.3l0.2-0.5c0.1,0.1,0.3,0.2,0.5,0.2c0.2,0.1,0.4,0.1,0.6,0.1c0.5,0,0.8-0.1,0.8-0.4
			c0-0.1,0-0.2-0.1-0.2C60.2,6,60.1,5.9,60,5.9c-0.1,0-0.2-0.1-0.4-0.1c-0.3,0-0.5-0.1-0.6-0.1c-0.2-0.1-0.3-0.1-0.4-0.3
			s-0.2-0.3-0.2-0.5c0-0.3,0.1-0.5,0.4-0.7c0.2-0.2,0.6-0.3,1-0.3c0.2,0,0.4,0,0.6,0.1c0.2,0.1,0.4,0.1,0.5,0.2l-0.2,0.5
			c-0.3-0.2-0.6-0.3-0.9-0.3c-0.2,0-0.4,0-0.6,0.1c-0.1,0.1-0.2,0.2-0.2,0.3c0,0.1,0,0.2,0.1,0.2s0.2,0.1,0.3,0.1
			c0.1,0,0.3,0.1,0.4,0.1c0.3,0,0.5,0.1,0.6,0.1c0.2,0.1,0.3,0.1,0.4,0.3c0.1,0.1,0.2,0.3,0.2,0.5c0,0.3-0.1,0.5-0.4,0.7
			c-0.2,0.2-0.6,0.3-1,0.3C59.3,7.2,59,7.2,58.8,7.1z"/>
		<path d="M64.5,5.8h-2.6c0,0.3,0.2,0.5,0.4,0.7c0.2,0.2,0.5,0.3,0.8,0.3c0.4,0,0.7-0.1,0.9-0.4l0.3,0.4C64.2,6.8,64,7,63.8,7.1
			c-0.2,0.1-0.5,0.1-0.7,0.1c-0.3,0-0.6-0.1-0.9-0.2c-0.3-0.1-0.5-0.3-0.6-0.6c-0.1-0.2-0.2-0.5-0.2-0.8c0-0.3,0.1-0.6,0.2-0.8
			s0.3-0.4,0.6-0.6c0.2-0.1,0.5-0.2,0.8-0.2c0.3,0,0.6,0.1,0.8,0.2c0.2,0.1,0.4,0.3,0.6,0.6s0.2,0.5,0.2,0.9
			C64.5,5.6,64.5,5.7,64.5,5.8z M62.3,4.7c-0.2,0.2-0.3,0.4-0.3,0.7h2c0-0.3-0.1-0.5-0.3-0.7c-0.2-0.2-0.4-0.3-0.7-0.3
			C62.7,4.4,62.4,4.5,62.3,4.7z"/>
		<path d="M68.3,2.7v4.5h-0.6V6.7c-0.1,0.2-0.3,0.3-0.5,0.4c-0.2,0.1-0.4,0.1-0.6,0.1c-0.3,0-0.6-0.1-0.8-0.2
			c-0.2-0.1-0.4-0.3-0.6-0.6C65.1,6.2,65,5.9,65,5.6c0-0.3,0.1-0.6,0.2-0.8s0.3-0.4,0.6-0.6C66,4,66.3,3.9,66.6,3.9
			c0.2,0,0.4,0,0.6,0.1c0.2,0.1,0.4,0.2,0.5,0.4V2.7H68.3z M67.2,6.5c0.2-0.1,0.3-0.2,0.4-0.4s0.1-0.4,0.1-0.6c0-0.2,0-0.4-0.1-0.6
			s-0.2-0.3-0.4-0.4c-0.2-0.1-0.3-0.1-0.5-0.1c-0.2,0-0.4,0-0.5,0.1C66,4.7,65.8,4.8,65.7,5c-0.1,0.2-0.1,0.4-0.1,0.6
			c0,0.2,0,0.4,0.1,0.6c0.1,0.2,0.2,0.3,0.4,0.4c0.2,0.1,0.3,0.1,0.5,0.1C66.9,6.7,67.1,6.6,67.2,6.5z"/>
		<path d="M73.5,4.2c0.2,0.1,0.4,0.3,0.6,0.6c0.1,0.2,0.2,0.5,0.2,0.8c0,0.3-0.1,0.6-0.2,0.8C74,6.7,73.8,6.9,73.5,7
			c-0.2,0.1-0.5,0.2-0.8,0.2c-0.2,0-0.5,0-0.6-0.1c-0.2-0.1-0.4-0.2-0.5-0.4v0.5H71V2.7h0.6v1.8c0.1-0.2,0.3-0.3,0.5-0.4
			c0.2-0.1,0.4-0.1,0.6-0.1C73,3.9,73.3,4,73.5,4.2z M73.2,6.5c0.2-0.1,0.3-0.2,0.4-0.4s0.1-0.4,0.1-0.6c0-0.2,0-0.4-0.1-0.6
			s-0.2-0.3-0.4-0.4c-0.2-0.1-0.3-0.1-0.5-0.1c-0.2,0-0.4,0-0.5,0.1C72,4.7,71.8,4.8,71.7,5s-0.1,0.4-0.1,0.6c0,0.2,0,0.4,0.1,0.6
			s0.2,0.3,0.4,0.4c0.2,0.1,0.3,0.1,0.5,0.1C72.9,6.7,73,6.6,73.2,6.5z"/>
		<path d="M77.8,4l-1.5,3.5C76.2,7.8,76,8,75.8,8.2c-0.2,0.1-0.4,0.2-0.7,0.2c-0.2,0-0.3,0-0.5-0.1c-0.1-0.1-0.3-0.1-0.4-0.2
			l0.2-0.4c0.2,0.2,0.4,0.2,0.6,0.2c0.1,0,0.3,0,0.4-0.1c0.1-0.1,0.2-0.2,0.3-0.4l0.1-0.2L74.5,4h0.6l1.1,2.5L77.3,4H77.8z"/>
	</g>
</g>
</svg>
